<svg width="487" height="69" viewBox="0 0 487 69" fill="none" xmlns="http://www.w3.org/2000/svg">
<path d="M36.2051 52.4101C36.2051 54.5488 35.7949 56.5557 34.9746 58.4307C34.1836 60.3057 33.085 61.9463 31.6787 63.3525C30.2725 64.7588 28.6318 65.8721 26.7568 66.6924C24.8818 67.4834 22.875 67.8789 20.7363 67.8789H16.2539C14.1152 67.8789 12.0938 67.4834 10.1895 66.6924C8.31445 65.8721 6.67383 64.7588 5.26758 63.3525C3.86133 61.9463 2.74805 60.3057 1.92773 58.4307C1.13672 56.5557 0.741211 54.5488 0.741211 52.4101V18.5723C0.741211 16.4336 1.13672 14.4267 1.92773 12.5517C2.74805 10.6767 3.86133 9.03612 5.26758 7.62987C6.67383 6.22362 8.31445 5.12499 10.1895 4.33397C12.0938 3.51366 14.1152 3.10351 16.2539 3.10351H20.7363C22.875 3.10351 24.8818 3.51366 26.7568 4.33397C28.6318 5.12499 30.2725 6.22362 31.6787 7.62987C33.085 9.03612 34.1836 10.6767 34.9746 12.5517C35.7949 14.4267 36.2051 16.4336 36.2051 18.5723V21.1211L30.5361 22V18.5723C30.5361 17.166 30.2725 15.8623 29.7451 14.6611C29.2178 13.4307 28.5 12.3613 27.5918 11.4531C26.6836 10.5449 25.6143 9.82714 24.3838 9.2998C23.1826 8.77245 21.8789 8.50878 20.4727 8.50878H16.5176C15.1113 8.50878 13.793 8.77245 12.5625 9.2998C11.3613 9.82714 10.292 10.5449 9.35449 11.4531C8.44629 12.3613 7.72852 13.4307 7.20117 14.6611C6.67383 15.8623 6.41016 17.166 6.41016 18.5723V52.4101C6.41016 53.8164 6.67383 55.1348 7.20117 56.3652C7.72852 57.5664 8.44629 58.6357 9.35449 59.5732C10.292 60.4814 11.3613 61.1992 12.5625 61.7266C13.793 62.2539 15.1113 62.5176 16.5176 62.5176H20.4727C21.8789 62.5176 23.1826 62.2539 24.3838 61.7266C25.6143 61.1992 26.6836 60.4814 27.5918 59.5732C28.5 58.6357 29.2178 57.5664 29.7451 56.3652C30.2725 55.1348 30.5361 53.8164 30.5361 52.4101V48.9824L36.2051 49.9053V52.4101Z" fill="white"/>
<path d="M77.1182 54.6514C77.1182 56.4678 76.7666 58.1816 76.0635 59.793C75.3896 61.4043 74.4521 62.8105 73.251 64.0117C72.0498 65.2129 70.6436 66.165 69.0322 66.8682C67.4209 67.542 65.707 67.8789 63.8906 67.8789H60.2871C58.4707 67.8789 56.7568 67.542 55.1455 66.8682C53.5342 66.165 52.1279 65.2129 50.9268 64.0117C49.7256 62.8105 48.7734 61.4043 48.0703 59.793C47.3965 58.1816 47.0596 56.4678 47.0596 54.6514V34.3486C47.0596 32.5322 47.3965 30.8183 48.0703 29.207C48.7734 27.5957 49.7256 26.1894 50.9268 24.9883C52.1279 23.7871 53.5342 22.8496 55.1455 22.1758C56.7568 21.4726 58.4707 21.1211 60.2871 21.1211H63.8906C65.707 21.1211 67.4209 21.4726 69.0322 22.1758C70.6436 22.8496 72.0498 23.7871 73.251 24.9883C74.4521 26.1894 75.3896 27.5957 76.0635 29.207C76.7666 30.8183 77.1182 32.5322 77.1182 34.3486V54.6514ZM71.7129 34.041C71.7129 32.957 71.5078 31.9463 71.0977 31.0088C70.6875 30.042 70.1309 29.207 69.4277 28.5039C68.7246 27.8008 67.8896 27.2441 66.9229 26.834C65.9854 26.4238 64.9746 26.2187 63.8906 26.2187H60.2871C59.2031 26.2187 58.1777 26.4238 57.2109 26.834C56.2734 27.2441 55.4531 27.8008 54.75 28.5039C54.0469 29.207 53.4902 30.042 53.0801 31.0088C52.6699 31.9463 52.4648 32.957 52.4648 34.041V54.959C52.4648 56.043 52.6699 57.0683 53.0801 58.0351C53.4902 58.9726 54.0469 59.793 54.75 60.4961C55.4531 61.1992 56.2734 61.7558 57.2109 62.166C58.1777 62.5762 59.2031 62.7812 60.2871 62.7812H63.8906C64.9746 62.7812 65.9854 62.5762 66.9229 62.166C67.8896 61.7558 68.7246 61.1992 69.4277 60.4961C70.1309 59.793 70.6875 58.9726 71.0977 58.0351C71.5078 57.0683 71.7129 56.043 71.7129 54.959V34.041Z" fill="white"/>
<path d="M112.582 67V34.041C112.582 32.957 112.377 31.9463 111.967 31.0088C111.557 30.042 111 29.207 110.297 28.5039C109.594 27.8008 108.759 27.2441 107.792 26.834C106.854 26.4238 105.844 26.2187 104.76 26.2187H101.156C100.072 26.2187 99.0469 26.4238 98.0801 26.834C97.1426 27.2441 96.3223 27.8008 95.6191 28.5039C94.916 29.207 94.3594 30.042 93.9492 31.0088C93.5391 31.9463 93.334 32.957 93.334 34.041V67H87.9287V22H89.7305L92.6748 26.5703C93.9053 24.9004 95.4434 23.582 97.2891 22.6152C99.1641 21.6191 101.2 21.1211 103.397 21.1211H104.76C106.576 21.1211 108.29 21.4726 109.901 22.1758C111.513 22.8496 112.919 23.7871 114.12 24.9883C115.321 26.1894 116.259 27.5957 116.933 29.207C117.636 30.8183 117.987 32.5322 117.987 34.3486V67H112.582Z" fill="white"/>
<path d="M153.451 67V34.041C153.451 32.957 153.246 31.9463 152.836 31.0088C152.426 30.042 151.869 29.207 151.166 28.5039C150.463 27.8008 149.628 27.2441 148.661 26.834C147.724 26.4238 146.713 26.2187 145.629 26.2187H142.025C140.941 26.2187 139.916 26.4238 138.949 26.834C138.012 27.2441 137.191 27.8008 136.488 28.5039C135.785 29.207 135.229 30.042 134.818 31.0088C134.408 31.9463 134.203 32.957 134.203 34.041V67H128.798V22H130.6L133.544 26.5703C134.774 24.9004 136.312 23.582 138.158 22.6152C140.033 21.6191 142.069 21.1211 144.267 21.1211H145.629C147.445 21.1211 149.159 21.4726 150.771 22.1758C152.382 22.8496 153.788 23.7871 154.989 24.9883C156.19 26.1894 157.128 27.5957 157.802 29.207C158.505 30.8183 158.856 32.5322 158.856 34.3486V67H153.451Z" fill="white"/>
<path d="M199.726 54.6514C199.726 56.4678 199.374 58.1816 198.671 59.793C197.997 61.4043 197.06 62.8105 195.858 64.0117C194.657 65.2129 193.251 66.165 191.64 66.8682C190.028 67.542 188.314 67.8789 186.498 67.8789H182.895C181.078 67.8789 179.364 67.542 177.753 66.8682C176.142 66.165 174.735 65.2129 173.534 64.0117C172.333 62.8105 171.381 61.4043 170.678 59.793C170.004 58.1816 169.667 56.4678 169.667 54.6514V34.3486C169.667 32.5322 170.004 30.8183 170.678 29.207C171.381 27.5957 172.333 26.1894 173.534 24.9883C174.735 23.7871 176.142 22.8496 177.753 22.1758C179.364 21.4726 181.078 21.1211 182.895 21.1211H186.498C188.314 21.1211 190.028 21.4726 191.64 22.1758C193.251 22.8496 194.657 23.7871 195.858 24.9883C197.06 26.1894 197.997 27.5957 198.671 29.207C199.374 30.8183 199.726 32.5322 199.726 34.3486V44.9394H175.072V54.959C175.072 56.043 175.277 57.0683 175.688 58.0351C176.098 58.9726 176.654 59.793 177.357 60.4961C178.061 61.1992 178.881 61.7558 179.818 62.166C180.785 62.5762 181.811 62.7812 182.895 62.7812H186.498C187.582 62.7812 188.593 62.5762 189.53 62.166C190.497 61.7558 191.332 61.1992 192.035 60.4961C192.738 59.793 193.295 58.9726 193.705 58.0351C194.115 57.0683 194.32 56.043 194.32 54.959V51.9707L199.726 52.8496V54.6514ZM194.32 34.041C194.32 32.957 194.115 31.9463 193.705 31.0088C193.295 30.042 192.738 29.207 192.035 28.5039C191.332 27.8008 190.497 27.2441 189.53 26.834C188.593 26.4238 187.582 26.2187 186.498 26.2187H182.895C181.811 26.2187 180.785 26.4238 179.818 26.834C178.881 27.2441 178.061 27.8008 177.357 28.5039C176.654 29.207 176.098 30.042 175.688 31.0088C175.277 31.9463 175.072 32.957 175.072 34.041V40.7207H194.32V34.041Z" fill="white"/>
<path d="M240.595 54.6514C240.595 56.4678 240.243 58.1816 239.54 59.793C238.866 61.4043 237.929 62.8105 236.728 64.0117C235.526 65.2129 234.12 66.165 232.509 66.8682C230.897 67.542 229.184 67.8789 227.367 67.8789H223.764C221.947 67.8789 220.233 67.542 218.622 66.8682C217.011 66.165 215.604 65.2129 214.403 64.0117C213.202 62.8105 212.25 61.4043 211.547 59.793C210.873 58.1816 210.536 56.4678 210.536 54.6514V34.3486C210.536 32.5322 210.873 30.8183 211.547 29.207C212.25 27.5957 213.202 26.1894 214.403 24.9883C215.604 23.7871 217.011 22.8496 218.622 22.1758C220.233 21.4726 221.947 21.1211 223.764 21.1211H227.367C229.184 21.1211 230.897 21.4726 232.509 22.1758C234.12 22.8496 235.526 23.7871 236.728 24.9883C237.929 26.1894 238.866 27.5957 239.54 29.207C240.243 30.8183 240.595 32.5322 240.595 34.3486V36.1504L235.189 37.0293V34.041C235.189 32.957 234.984 31.9463 234.574 31.0088C234.164 30.042 233.607 29.207 232.904 28.5039C232.201 27.8008 231.366 27.2441 230.399 26.834C229.462 26.4238 228.451 26.2187 227.367 26.2187H223.764C222.68 26.2187 221.654 26.4238 220.688 26.834C219.75 27.2441 218.93 27.8008 218.227 28.5039C217.523 29.207 216.967 30.042 216.557 31.0088C216.146 31.9463 215.941 32.957 215.941 34.041V54.959C215.941 56.043 216.146 57.0683 216.557 58.0351C216.967 58.9726 217.523 59.793 218.227 60.4961C218.93 61.1992 219.75 61.7558 220.688 62.166C221.654 62.5762 222.68 62.7812 223.764 62.7812H227.367C228.451 62.7812 229.462 62.5762 230.399 62.166C231.366 61.7558 232.201 61.1992 232.904 60.4961C233.607 59.793 234.164 58.9726 234.574 58.0351C234.984 57.0683 235.189 56.043 235.189 54.959V51.9707L240.595 52.8496V54.6514Z" fill="white"/>
<path d="M265.62 10.67H248.7V1.84999H292.71V10.67H275.61V68H265.62V10.67Z" fill="#00DEA5"/>
<path d="M302.325 1.84999H331.305V10.67H312.315V28.94H327.615V37.94H312.315V59.09H334.275V68H302.325V1.84999Z" fill="#00DEA5"/>
<path d="M344.336 1.84999H373.316V10.67H354.326V28.94H369.626V37.94H354.326V59.09H376.286V68H344.336V1.84999Z" fill="#00DEA5"/>
<path d="M396.248 25.16L396.518 32.36V68H386.438V1.75998H387.698L426.578 45.14L426.218 37.58V1.84999H436.298V68H434.948L396.248 25.16Z" fill="#00DEA5"/>
<path d="M465.544 68.9C461.944 68.9 458.374 68.27 454.834 67.01C451.294 65.75 448.744 64.34 447.184 62.78L451.954 54.23C453.214 55.37 455.164 56.57 457.804 57.83C460.504 59.03 463.084 59.63 465.544 59.63C468.724 59.63 471.304 58.88 473.284 57.38C475.324 55.88 476.344 53.81 476.344 51.17C476.344 49.13 475.804 47.36 474.724 45.86C473.644 44.36 472.324 43.13 470.764 42.17C469.204 41.15 466.984 39.92 464.104 38.48C460.684 36.8 458.344 35.54 457.084 34.7C451.264 30.8 448.354 25.4 448.354 18.5C448.354 12.8 450.244 8.44999 454.024 5.44999C457.804 2.38999 462.574 0.859985 468.334 0.859985C474.514 0.859985 479.764 2.62999 484.084 6.16999L479.314 14.36C478.174 13.16 476.554 12.14 474.454 11.3C472.414 10.4 470.224 9.94999 467.884 9.94999C464.884 9.94999 462.514 10.64 460.774 12.02C459.094 13.34 458.254 15.32 458.254 17.96C458.254 19.82 458.794 21.5 459.874 23C460.954 24.44 462.304 25.7 463.924 26.78C465.604 27.86 467.854 29.18 470.674 30.74C473.374 32.24 475.444 33.44 476.884 34.34C478.324 35.18 479.674 36.2 480.934 37.4C482.674 38.96 484.084 40.82 485.164 42.98C486.244 45.14 486.784 47.51 486.784 50.09C486.784 54.11 485.854 57.53 483.994 60.35C482.194 63.17 479.674 65.3 476.434 66.74C473.254 68.18 469.624 68.9 465.544 68.9Z" fill="#00DEA5"/>
</svg>
