<svg width="326" height="369" viewBox="0 0 326 369" fill="none" xmlns="http://www.w3.org/2000/svg">
<path d="M303 217.5C303 301.171 235.171 369 151.5 369C67.8289 369 0 301.171 0 217.5C0 133.829 67.8289 66 151.5 66C235.171 66 303 133.829 303 217.5Z" fill="#2F3239"/>
<path d="M166.553 147.591H211.653C211.8 147.591 211.941 147.533 212.045 147.429C212.149 147.326 212.207 147.185 212.207 147.038C212.207 146.892 212.149 146.751 212.045 146.647C211.941 146.544 211.8 146.485 211.653 146.485H166.553C166.406 146.485 166.266 146.544 166.162 146.647C166.058 146.751 165.999 146.892 165.999 147.038C165.999 147.185 166.058 147.326 166.162 147.429C166.266 147.533 166.406 147.591 166.553 147.591Z" fill="#3F3D56"/>
<path d="M187.331 94.9492C186.335 95.455 185.576 96.3289 185.215 97.385C184.855 98.441 184.921 99.5959 185.4 100.604C185.501 100.807 185.618 101.002 185.751 101.186L177.259 113.49L181.995 119.989L191.803 101.879C192.524 101.27 193.023 100.44 193.223 99.5174C193.422 98.5953 193.31 97.6332 192.904 96.7814C192.669 96.2989 192.34 95.8674 191.938 95.5117C191.535 95.1559 191.066 94.8828 190.558 94.708C190.05 94.5332 189.512 94.46 188.976 94.4927C188.439 94.5254 187.914 94.6634 187.431 94.8986C187.397 94.915 187.364 94.9319 187.331 94.9492Z" fill="#FFB6B6"/>
<path d="M136.955 97.4292C136.032 97.9562 135.233 98.6756 134.613 99.5384C133.993 100.401 133.567 101.387 133.362 102.43C133.158 103.472 133.181 104.546 133.429 105.578C133.677 106.611 134.146 107.578 134.802 108.414L145.342 121.841L168.68 139.069C168.68 139.069 185.117 124.729 185.248 120.272C185.38 115.815 183.621 114.871 185.38 115.815C187.139 116.759 188.741 116.051 188.137 115.553C187.533 115.055 187.746 114.999 188.112 114.149C188.478 113.298 189.765 109.287 189.765 109.287L183.356 104.062C183.356 104.062 177.373 107.686 176.979 109.39C176.585 111.094 178.738 110.334 176.585 111.094C174.433 111.855 171.249 109.637 173.799 112.044C176.349 114.45 176.268 115.609 174.156 115.79C172.043 115.971 168.708 121.843 168.708 121.843L145.914 98.6678C144.767 97.5021 143.267 96.7483 141.646 96.5243C140.025 96.3002 138.376 96.6184 136.955 97.4292Z" fill="#E6E6E6"/>
<path d="M134.665 351.462H64.6732C63.2327 351.461 61.8517 350.888 60.833 349.871C59.8144 348.854 59.2414 347.475 59.2396 346.036V287.199C59.2414 285.76 59.8144 284.381 60.833 283.364C61.8517 282.347 63.2327 281.774 64.6732 281.773H134.665C136.105 281.774 137.486 282.347 138.505 283.364C139.524 284.381 140.097 285.76 140.098 287.199V346.036C140.097 347.475 139.524 348.854 138.505 349.871C137.486 350.888 136.105 351.461 134.665 351.462Z" fill="#F2F2F2"/>
<path d="M27.6682 269.761L27.6405 275.854L51.686 278.862L51.7264 269.869L27.6682 269.761Z" fill="#FFB6B6"/>
<path d="M30.5019 268.184L31.0638 278.362L26.6982 278.342L19.9639 287.987C19.6313 288.463 19.155 288.821 18.6044 289.008C18.0539 289.194 17.4579 289.201 16.9036 289.025C16.3492 288.85 15.8655 288.502 15.5231 288.033C15.1806 287.564 14.9973 286.997 15 286.417L15.0551 274.302L19.3828 272.233L15.0683 271.398L15.089 266.831L30.5019 268.184Z" fill="#E6E6E6"/>
<path d="M228.474 142.766C213.708 139.095 201.031 131.88 191.12 119.969C190.364 119.506 189.823 118.764 189.615 117.904C189.407 117.043 189.55 116.136 190.011 115.38L207.25 87.2069C207.713 86.4524 208.457 85.9121 209.318 85.7044C210.179 85.4968 211.088 85.6389 211.845 86.0994L249.199 108.896C249.955 109.359 250.496 110.101 250.704 110.961C250.912 111.822 250.769 112.729 250.308 113.485L233.069 141.658C232.606 142.413 231.862 142.953 231.001 143.161C230.139 143.368 229.231 143.226 228.474 142.766Z" fill="#E6E6E6"/>
<path d="M218.514 133.719C210.739 132.871 202.659 126.666 194.499 119.063C193.792 118.63 193.285 117.934 193.09 117.129C192.895 116.323 193.029 115.474 193.46 114.766L208.276 90.5532C208.71 89.8465 209.406 89.3404 210.213 89.146C211.02 88.9515 211.871 89.0845 212.579 89.5158L245.82 109.802C246.527 110.235 247.034 110.93 247.229 111.736C247.423 112.542 247.29 113.391 246.858 114.099L237.68 129.098C235.749 132.246 232.647 134.5 229.054 135.366C225.461 136.233 221.67 135.64 218.514 133.719Z" fill="white"/>
<path d="M225.331 104.626L213.831 123.537C213.74 123.686 213.621 123.816 213.48 123.919C213.339 124.022 213.18 124.097 213.01 124.138C212.841 124.18 212.664 124.187 212.492 124.161C212.319 124.134 212.154 124.074 212.004 123.983C211.855 123.893 211.725 123.774 211.622 123.633C211.519 123.492 211.444 123.333 211.403 123.163C211.362 122.994 211.354 122.818 211.381 122.646C211.407 122.474 211.468 122.308 211.558 122.159L223.059 103.248C223.149 103.099 223.268 102.969 223.409 102.866C223.55 102.763 223.71 102.688 223.879 102.647C224.049 102.605 224.225 102.598 224.398 102.624C224.57 102.651 224.736 102.711 224.885 102.802C225.034 102.892 225.164 103.011 225.267 103.152C225.37 103.293 225.445 103.452 225.486 103.622C225.528 103.791 225.535 103.967 225.509 104.139C225.482 104.311 225.422 104.477 225.331 104.626Z" fill="#00DEA5"/>
<path d="M230.326 107.655L218.826 126.567C218.643 126.867 218.347 127.083 218.005 127.166C217.663 127.249 217.302 127.193 217.001 127.011C216.7 126.828 216.483 126.534 216.4 126.192C216.316 125.85 216.371 125.49 216.553 125.189L228.054 106.277C228.237 105.977 228.532 105.761 228.874 105.678C229.216 105.595 229.578 105.651 229.879 105.833C230.18 106.016 230.396 106.31 230.48 106.652C230.564 106.993 230.508 107.354 230.326 107.655Z" fill="#00DEA5"/>
<path d="M152.559 168.112C152.559 168.112 150.134 205.468 148.129 211.254C145.952 217.515 146.235 227.017 142.967 236.115C141.959 238.925 140.929 241.773 139.899 244.599C139.694 245.169 139.484 245.739 139.279 246.309C137.933 249.987 136.587 253.604 135.302 257.022C135.119 257.503 134.937 257.979 134.759 258.449C134.754 258.46 134.754 258.471 134.748 258.477C130.506 269.621 126.873 278.388 125.422 279.837C123.871 281.386 113.393 282.027 100.444 282.204C76.447 282.525 43.9596 281.258 43.9596 281.258L44.0094 268.222C44.0094 268.222 44.2974 268.139 44.8346 267.979C45.8259 267.691 47.6702 267.155 50.0793 266.441C60.1424 263.476 80.0857 257.509 89.2183 254.212C91.7991 253.283 93.5159 252.564 93.9036 252.182C96.1743 249.97 97.1767 252.182 98.6167 254.395C100.057 256.607 100.5 254.395 102.383 252.769C104.266 251.143 108.508 253.377 108.508 253.377C108.508 253.377 108.547 251.906 108.608 249.561C108.696 246.098 108.829 240.711 108.962 235.319C108.957 235.313 108.957 235.313 108.962 235.313C109.012 233.283 109.062 231.253 109.106 229.329C109.145 227.835 109.178 226.403 109.211 225.075C109.3 221.099 109.361 218.09 109.361 217.338C109.361 214.882 109.361 216.79 111.305 215.308C111.595 215.08 111.871 214.835 112.13 214.572C112.545 214.2 112.927 213.793 113.271 213.355C113.415 213.046 112.523 213.466 111.366 213.234C110.738 213.107 110.158 212.81 109.688 212.376C107.245 210.181 109.882 203.444 109.882 203.444C104.332 192.36 104.731 183.267 107.328 176.265C109.269 171.235 112.352 166.724 116.334 163.085C117.85 161.645 119.501 160.352 121.263 159.224L121.434 158.312L123.312 148.174C127.419 145.894 132.166 145.032 136.814 145.723C140.293 146.229 143.662 147.32 146.777 148.948C149.322 150.225 151.71 151.791 153.894 153.616L152.559 168.112Z" fill="#F50058"/>
<path d="M101.531 337.357L107.606 337.922L112.725 314.266L103.758 313.434L101.531 337.357Z" fill="#FFB6B6"/>
<path d="M119.031 346.628L110.003 339.078L110.408 334.737L108.309 334.665L101.801 334.455L100.206 334.399L97.498 349.615L102.056 350.035L103.269 345.815L104.947 350.306L117.026 351.429C117.605 351.483 118.186 351.35 118.684 351.051C119.183 350.751 119.572 350.301 119.796 349.765C120.02 349.229 120.066 348.635 119.929 348.071C119.791 347.507 119.476 347.001 119.031 346.628Z" fill="#DEDADA"/>
<path d="M135.302 257.022C132.993 269.588 123.207 299.04 117.292 316.28C114.595 324.156 112.712 329.488 112.712 329.488L100.267 325.561C100.267 325.561 100.804 297.232 100.444 282.204C100.322 277.359 100.112 273.897 99.7631 273.211C98.3232 270.39 100.732 270.091 103.274 269.378C105.822 268.664 103.834 267.591 102.842 265.302C102.172 263.775 103.49 261.745 104.426 260.584C104.684 260.257 104.96 259.945 105.252 259.649C105.252 259.649 98.7718 257.448 91.4447 254.964C91.4391 254.97 91.4391 254.964 91.4391 254.964C90.7026 254.715 89.9604 254.467 89.2183 254.212C91.7991 253.283 93.5159 252.564 93.9036 252.182C96.1743 249.97 97.1767 252.182 98.6167 254.395C100.057 256.607 100.5 254.395 102.383 252.769C104.266 251.143 108.508 253.377 108.508 253.377C108.508 253.377 108.547 251.906 108.608 249.561C108.696 246.098 108.829 240.711 108.962 235.319C108.957 235.313 108.957 235.313 108.962 235.313C109.012 233.283 109.062 231.253 109.106 229.329C113.011 232.315 116.799 235.247 120.233 237.957C120.238 237.962 120.249 237.968 120.249 237.979C128.507 244.494 134.704 249.727 135.574 251.386C135.967 252.138 135.834 254.135 135.302 257.022Z" fill="#F50058"/>
<path d="M112.629 161.957C110.033 161.166 107.303 163.837 107.382 166.546C107.461 169.256 109.628 171.55 112.124 172.616C114.619 173.682 154.184 180.336 157.112 178.833C160.039 177.329 162.166 173.723 160.874 170.7C160.041 168.752 158.246 159.699 156.654 158.301C151.295 153.595 156.213 147.456 159.522 141.142C162.449 135.557 168.759 131.285 168.697 124.981C168.651 120.451 165.22 116.759 162.007 113.561L142.094 93.735C140.022 91.6717 131.132 90.5803 129.54 91.5391C126.214 93.5427 117.983 126.927 116.807 129.971C116.429 130.949 118.883 143.461 119.884 143.776C122.648 152.525 117.787 154.213 112.502 161.717" fill="#E6E6E6"/>
<path d="M191.993 111.421C190.909 111.691 189.973 112.374 189.385 113.323C188.798 114.271 188.604 115.412 188.845 116.501C188.898 116.722 188.968 116.938 189.057 117.147L178.026 127.243L181.187 134.636L194.8 119.173C195.64 118.741 196.312 118.043 196.713 117.189C197.113 116.334 197.22 115.372 197.015 114.451C196.893 113.928 196.67 113.434 196.357 112.997C196.044 112.561 195.648 112.19 195.192 111.906C194.736 111.622 194.228 111.431 193.698 111.343C193.168 111.255 192.625 111.272 192.102 111.394C192.065 111.402 192.029 111.411 191.993 111.421Z" fill="#FFB6B6"/>
<path d="M142.337 102.591C141.319 102.899 140.379 103.422 139.582 104.124C138.784 104.827 138.148 105.693 137.715 106.663C137.283 107.633 137.065 108.685 137.076 109.747C137.087 110.809 137.326 111.856 137.779 112.817L145.047 128.258L163.938 150.26C163.938 150.26 183.168 139.953 184.294 135.638C185.42 131.323 183.917 130.01 185.42 131.323C186.924 132.635 188.643 132.303 188.166 131.683C187.689 131.062 187.909 131.056 188.456 130.309C189.004 129.561 191.156 125.939 191.156 125.939L186.078 119.415C186.078 119.415 179.436 121.612 178.671 123.185C177.905 124.758 180.174 124.498 177.905 124.758C175.637 125.019 173.03 122.147 174.976 125.062C176.923 127.977 176.585 129.087 174.486 128.792C172.386 128.497 167.821 133.477 167.821 133.477L150.791 105.799C149.935 104.406 148.641 103.337 147.111 102.757C145.582 102.176 143.903 102.118 142.337 102.591Z" fill="#E6E6E6"/>
<path d="M136.001 87.3616C145.146 87.3616 152.559 79.9581 152.559 70.8255C152.559 61.6928 145.146 54.2894 136.001 54.2894C126.856 54.2894 119.443 61.6928 119.443 70.8255C119.443 79.9581 126.856 87.3616 136.001 87.3616Z" fill="#FFB6B6"/>
<path d="M123.207 58.6004C123.377 57.1122 124.398 55.2729 125.109 53.9537C125.819 52.6345 127.191 51.5572 128.688 51.6492C129.3 51.7199 129.885 51.9375 130.395 52.2831C130.904 52.6288 131.322 53.0924 131.613 53.6343C132.185 54.7254 132.496 55.9336 132.523 57.1646C132.679 59.9112 132.22 62.6581 131.179 65.205C130.137 67.7519 128.54 70.0346 126.503 71.8867C125.342 72.9261 123.946 73.8512 122.387 73.8864C121.68 73.8695 120.982 73.7114 120.337 73.4214C119.691 73.1313 119.11 72.7153 118.628 72.1977C116.105 69.6747 115.724 65.5269 117.071 62.2251C118.418 58.9233 119.019 57.6385 122.099 55.835" fill="#2F2E41"/>
<path d="M146.467 82.3833C146.19 83.8546 148.738 90.8512 147.924 92.1122C147.924 92.1122 139.494 95.0363 136.271 95.2465C132.333 95.5009 129.166 93.8876 125.483 91.4596C125.416 90.1424 125.034 88.8603 124.37 87.7207C124.425 88.6034 124.246 89.4851 123.849 90.276C118.455 85.984 116.43 74.1815 121.763 68.7004L127.302 55.9793C125.64 56.5324 130.656 47.9866 135.945 54.1757C142.563 47.4446 155.384 57.1347 156.99 65.7906C155.444 63.8369 154.639 64.0672 154.243 65.4146C153.787 64.2813 153.066 63.274 152.139 62.4776C152.6 63.3875 152.835 64.3948 152.825 65.4145C142.386 66.0616 144.329 73.0952 152.885 83.6316C149.721 81.6645 151.856 90.1414 150.167 92.1675C150.084 90.7515 146.766 83.7605 146.467 82.3833Z" fill="#2F2E41"/>
<path d="M254.224 253.842H299.323C299.47 253.842 299.611 253.783 299.715 253.68C299.819 253.576 299.877 253.435 299.877 253.288C299.877 253.142 299.819 253.001 299.715 252.897C299.611 252.794 299.47 252.735 299.323 252.735H254.224C254.077 252.735 253.936 252.794 253.832 252.897C253.728 253.001 253.67 253.142 253.67 253.288C253.67 253.435 253.728 253.576 253.832 253.68C253.936 253.783 254.077 253.842 254.224 253.842Z" fill="#3F3D56"/>
<path d="M270.063 56.6796C260.919 44.5331 255.634 30.9502 255.461 15.4645C255.166 14.63 255.215 13.7128 255.596 12.9143C255.978 12.1157 256.661 11.5009 257.496 11.2048L288.664 0.191386C289.5 -0.102826 290.418 -0.0539997 291.218 0.32716C292.018 0.708321 292.633 1.39068 292.93 2.22455L307.532 43.4397C307.827 44.2742 307.778 45.1914 307.396 45.9899C307.014 46.7885 306.331 47.4033 305.496 47.6994L274.328 58.7128C273.493 59.007 272.574 58.9582 271.775 58.577C270.975 58.1959 270.359 57.5135 270.063 56.6796Z" fill="#E6E6E6"/>
<path d="M268.043 43.3862C262.544 37.8329 260.189 27.9284 258.655 16.8893C258.38 16.1078 258.425 15.2488 258.783 14.5009C259.14 13.753 259.78 13.1773 260.562 12.9L287.348 3.43488C288.131 3.15931 288.991 3.20501 289.74 3.56196C290.489 3.91891 291.065 4.55796 291.343 5.33891L304.337 42.0148C304.613 42.7963 304.567 43.6553 304.21 44.4032C303.852 45.1511 303.212 45.7269 302.43 46.0042L285.837 51.8676C282.351 53.095 278.52 52.8913 275.184 51.3013C271.848 49.7113 269.28 46.8647 268.043 43.3862Z" fill="white"/>
<path d="M291.702 25.0964L270.836 32.5345C270.504 32.6529 270.138 32.6346 269.82 32.4839C269.501 32.3331 269.256 32.0621 269.137 31.7305C269.019 31.3989 269.037 31.0339 269.188 30.7157C269.339 30.3975 269.61 30.1523 269.942 30.0339L290.808 22.5958C291.14 22.4779 291.505 22.4963 291.823 22.6472C292.142 22.798 292.387 23.0689 292.505 23.4002C292.624 23.7316 292.606 24.0964 292.455 24.4144C292.304 24.7325 292.033 24.9777 291.702 25.0964Z" fill="#00DEA5"/>
<path d="M272.976 24.0415L268.385 25.6779C268.221 25.7367 268.046 25.7625 267.872 25.754C267.697 25.7454 267.526 25.7026 267.368 25.628C267.21 25.5533 267.069 25.4484 266.952 25.3191C266.834 25.1897 266.744 25.0386 266.685 24.8743C266.626 24.71 266.601 24.5358 266.609 24.3615C266.618 24.1873 266.661 24.0165 266.736 23.8589C266.811 23.7013 266.916 23.56 267.046 23.443C267.175 23.3261 267.327 23.2358 267.491 23.1773L272.082 21.5409C272.414 21.423 272.779 21.4414 273.097 21.5923C273.416 21.7431 273.661 22.014 273.779 22.3454C273.898 22.6767 273.88 23.0415 273.729 23.3595C273.578 23.6776 273.307 23.9228 272.976 24.0415Z" fill="#00DEA5"/>
<path d="M295.631 36.0895L274.765 43.5276C274.433 43.6456 274.068 43.6271 273.75 43.4763C273.431 43.3254 273.186 43.0546 273.068 42.7232C272.949 42.3918 272.967 42.027 273.118 41.709C273.269 41.391 273.54 41.1457 273.871 41.0271L294.737 33.5889C295.069 33.471 295.434 33.4895 295.753 33.6403C296.071 33.7911 296.316 34.062 296.435 34.3934C296.553 34.7248 296.535 35.0895 296.384 35.4076C296.233 35.7256 295.963 35.9709 295.631 36.0895Z" fill="#00DEA5"/>
<path d="M293.666 30.5929L272.801 38.0311C272.468 38.1494 272.103 38.1312 271.784 37.9804C271.466 37.8297 271.22 37.5587 271.102 37.2271C270.983 36.8955 271.001 36.5304 271.152 36.2123C271.303 35.8941 271.575 35.6489 271.907 35.5305L292.772 28.0924C292.937 28.0336 293.111 28.0077 293.286 28.0163C293.46 28.0248 293.631 28.0676 293.789 28.1423C293.947 28.2169 294.089 28.3219 294.206 28.4512C294.323 28.5805 294.414 28.7316 294.473 28.8959C294.531 29.0602 294.557 29.2345 294.548 29.4087C294.54 29.5829 294.496 29.7537 294.422 29.9113C294.347 30.0689 294.241 30.2103 294.112 30.3272C293.982 30.4442 293.831 30.5345 293.666 30.5929Z" fill="#00DEA5"/>
<path d="M257.233 19.884C260.291 19.884 262.771 17.4078 262.771 14.3531C262.771 11.2985 260.291 8.82221 257.233 8.82221C254.174 8.82221 251.694 11.2985 251.694 14.3531C251.694 17.4078 254.174 19.884 257.233 19.884Z" fill="#00DEA5"/>
<path d="M288.339 243.624C279.195 231.478 273.91 217.895 273.737 202.409C273.442 201.575 273.491 200.658 273.873 199.859C274.254 199.061 274.938 198.446 275.773 198.15L306.941 187.136C307.776 186.842 308.695 186.891 309.494 187.272C310.294 187.653 310.909 188.336 311.206 189.169L325.808 230.384C326.103 231.219 326.054 232.136 325.672 232.935C325.291 233.733 324.608 234.348 323.773 234.644L292.605 245.658C291.769 245.952 290.851 245.903 290.051 245.522C289.251 245.141 288.636 244.458 288.339 243.624Z" fill="#E6E6E6"/>
<path d="M286.319 230.331C280.82 224.778 278.466 214.873 276.932 203.834C276.656 203.053 276.702 202.194 277.059 201.446C277.416 200.698 278.056 200.122 278.838 199.845L305.625 190.38C306.407 190.104 307.267 190.15 308.016 190.507C308.765 190.864 309.342 191.503 309.619 192.284L322.614 228.96C322.889 229.741 322.844 230.6 322.486 231.348C322.129 232.096 321.489 232.672 320.707 232.949L304.113 238.812C300.627 240.04 296.796 239.836 293.46 238.246C290.124 236.656 287.556 233.81 286.319 230.331Z" fill="white"/>
<path d="M309.978 212.041L289.112 219.479C288.78 219.598 288.415 219.579 288.096 219.429C287.777 219.278 287.532 219.007 287.413 218.675C287.295 218.344 287.313 217.979 287.464 217.661C287.615 217.342 287.886 217.097 288.218 216.979L309.084 209.541C309.416 209.423 309.781 209.441 310.1 209.592C310.418 209.743 310.663 210.014 310.782 210.345C310.9 210.676 310.882 211.041 310.731 211.359C310.581 211.677 310.31 211.923 309.978 212.041Z" fill="#00DEA5"/>
<path d="M291.252 210.986L286.661 212.623C286.329 212.741 285.964 212.722 285.646 212.571C285.328 212.42 285.082 212.15 284.964 211.818C284.845 211.487 284.864 211.122 285.014 210.804C285.165 210.486 285.436 210.241 285.768 210.122L290.358 208.486C290.523 208.427 290.697 208.401 290.871 208.41C291.046 208.418 291.217 208.461 291.375 208.536C291.533 208.61 291.674 208.715 291.792 208.845C291.909 208.974 292 209.125 292.058 209.289C292.117 209.454 292.143 209.628 292.134 209.802C292.125 209.976 292.082 210.147 292.007 210.305C291.932 210.462 291.827 210.604 291.697 210.721C291.568 210.838 291.416 210.928 291.252 210.986Z" fill="#00DEA5"/>
<path d="M311.942 217.538L291.077 224.976C290.745 225.094 290.379 225.076 290.061 224.925C289.742 224.775 289.496 224.504 289.378 224.172C289.259 223.84 289.278 223.475 289.429 223.157C289.58 222.839 289.851 222.594 290.183 222.475L311.049 215.037C311.213 214.978 311.388 214.953 311.562 214.961C311.737 214.97 311.908 215.012 312.066 215.087C312.223 215.162 312.365 215.267 312.482 215.396C312.6 215.525 312.69 215.676 312.749 215.841C312.808 216.005 312.833 216.179 312.824 216.354C312.816 216.528 312.773 216.699 312.698 216.856C312.623 217.014 312.518 217.155 312.388 217.272C312.258 217.389 312.107 217.479 311.942 217.538Z" fill="#00DEA5"/>
<path d="M276.616 206.276C279.675 206.276 282.155 203.799 282.155 200.745C282.155 197.69 279.675 195.214 276.616 195.214C273.558 195.214 271.078 197.69 271.078 200.745C271.078 203.799 273.558 206.276 276.616 206.276Z" fill="#00DEA5"/>
<path d="M188.946 101.132C192.005 101.132 194.484 98.6555 194.484 95.6009C194.484 92.5463 192.005 90.07 188.946 90.07C185.888 90.07 183.408 92.5463 183.408 95.6009C183.408 98.6555 185.888 101.132 188.946 101.132Z" fill="#00DEA5"/>
<path d="M131.402 68.8365C131.268 68.8363 131.139 68.788 131.039 68.7003C130.938 68.6127 130.872 68.4917 130.854 68.3596C130.836 68.2274 130.866 68.0931 130.938 67.9814C131.011 67.8696 131.122 67.7879 131.251 67.7514C131.396 67.5121 131.336 66.505 131.289 65.6913C131.108 62.6361 130.807 57.5227 135.778 54.071C135.898 53.9873 136.047 53.9548 136.192 53.9807C136.336 54.0066 136.465 54.0889 136.549 54.2093C136.632 54.3297 136.665 54.4784 136.639 54.6227C136.613 54.7671 136.531 54.8952 136.41 54.9789C131.949 58.0768 132.217 62.6201 132.394 65.6262C132.495 67.3449 132.569 68.5864 131.525 68.8227C131.485 68.8319 131.443 68.8365 131.402 68.8365Z" fill="#00DEA5"/>
<path d="M22.8983 351.342C22.898 351.428 22.9149 351.514 22.9479 351.594C22.981 351.674 23.0295 351.747 23.0907 351.808C23.152 351.869 23.2248 351.917 23.3048 351.95C23.3849 351.983 23.4707 352 23.5574 352H163.836C164.011 352 164.179 351.931 164.302 351.807C164.426 351.684 164.495 351.516 164.495 351.342C164.495 351.167 164.426 351 164.302 350.876C164.179 350.753 164.011 350.684 163.836 350.684H23.5574C23.4707 350.683 23.3849 350.7 23.3049 350.733C23.2248 350.766 23.152 350.815 23.0908 350.876C23.0295 350.937 22.981 351.01 22.9479 351.09C22.9149 351.17 22.898 351.255 22.8983 351.342Z" fill="#CCCCCC"/>
<path d="M131.66 56.7481C128.28 55.3471 124.679 54.5503 121.023 54.3939C118.123 54.2711 114.663 54.917 113.484 57.5661C112.768 59.1732 113.149 61.0569 113.804 62.6897C114.458 64.3225 115.376 65.8652 115.755 67.5827C116.571 71.2827 114.645 75.2038 111.688 77.5781C108.732 79.9523 104.917 81.0001 101.153 81.4764C103.981 82.5242 106.852 83.5818 109.857 83.8331C112.863 84.0845 116.072 83.432 118.316 81.4195C120.745 79.2417 121.678 75.8593 122.091 72.626C122.504 69.3928 122.525 66.0629 123.623 62.9932C124.72 59.9236 127.241 57.0648 130.494 56.7926" fill="#2F2E41"/>
<path d="M281 63C281 71.2843 274.284 78 266 78C257.716 78 251 71.2843 251 63C251 54.7157 257.716 48 266 48C274.284 48 281 54.7157 281 63Z" fill="#F4F4F4" fill-opacity="0.1"/>
<path d="M319 278C319 282.418 315.418 286 311 286C306.582 286 303 282.418 303 278C303 273.582 306.582 270 311 270C315.418 270 319 273.582 319 278Z" fill="#F4F4F4" fill-opacity="0.1"/>
</svg>
