<svg width="280" height="58" viewBox="0 0 280 58" fill="none" xmlns="http://www.w3.org/2000/svg">
<path d="M56.7441 32.4883C56.7441 33.2962 56.5892 34.0544 56.2793 34.7627C55.9805 35.471 55.5654 36.0908 55.0342 36.6221C54.5029 37.1533 53.8831 37.5739 53.1748 37.8838C52.4665 38.1826 51.7083 38.332 50.9004 38.332H49.207C48.3991 38.332 47.6354 38.1826 46.916 37.8838C46.2077 37.5739 45.5879 37.1533 45.0566 36.6221C44.5254 36.0908 44.1048 35.471 43.7949 34.7627C43.4961 34.0544 43.3467 33.2962 43.3467 32.4883V19.7051C43.3467 18.8971 43.4961 18.139 43.7949 17.4307C44.1048 16.7223 44.5254 16.1025 45.0566 15.5713C45.5879 15.04 46.2077 14.625 46.916 14.3262C47.6354 14.0163 48.3991 13.8613 49.207 13.8613H50.9004C51.7083 13.8613 52.4665 14.0163 53.1748 14.3262C53.8831 14.625 54.5029 15.04 55.0342 15.5713C55.5654 16.1025 55.9805 16.7223 56.2793 17.4307C56.5892 18.139 56.7441 18.8971 56.7441 19.7051V20.668L54.6025 21V19.7051C54.6025 19.1738 54.5029 18.6813 54.3037 18.2275C54.1045 17.7627 53.8333 17.3587 53.4902 17.0156C53.1471 16.6725 52.7432 16.4014 52.2783 16.2021C51.8245 16.0029 51.332 15.9033 50.8008 15.9033H49.3066C48.7754 15.9033 48.2773 16.0029 47.8125 16.2021C47.3587 16.4014 46.9548 16.6725 46.6006 17.0156C46.2575 17.3587 45.9863 17.7627 45.7871 18.2275C45.5879 18.6813 45.4883 19.1738 45.4883 19.7051V32.4883C45.4883 33.0195 45.5879 33.5176 45.7871 33.9824C45.9863 34.4362 46.2575 34.8402 46.6006 35.1943C46.9548 35.5374 47.3587 35.8086 47.8125 36.0078C48.2773 36.207 48.7754 36.3066 49.3066 36.3066H50.8008C51.332 36.3066 51.8245 36.207 52.2783 36.0078C52.7432 35.8086 53.1471 35.5374 53.4902 35.1943C53.8333 34.8402 54.1045 34.4362 54.3037 33.9824C54.5029 33.5176 54.6025 33.0195 54.6025 32.4883V31.1934L56.7441 31.542V32.4883ZM72.2002 33.335C72.2002 34.0212 72.0674 34.6686 71.8018 35.2773C71.5472 35.8861 71.193 36.4173 70.7393 36.8711C70.2855 37.3249 69.7542 37.6846 69.1455 37.9502C68.5368 38.2048 67.8893 38.332 67.2031 38.332H65.8418C65.1556 38.332 64.5081 38.2048 63.8994 37.9502C63.2907 37.6846 62.7594 37.3249 62.3057 36.8711C61.8519 36.4173 61.4922 35.8861 61.2266 35.2773C60.972 34.6686 60.8447 34.0212 60.8447 33.335V25.665C60.8447 24.9788 60.972 24.3314 61.2266 23.7227C61.4922 23.1139 61.8519 22.5827 62.3057 22.1289C62.7594 21.6751 63.2907 21.321 63.8994 21.0664C64.5081 20.8008 65.1556 20.668 65.8418 20.668H67.2031C67.8893 20.668 68.5368 20.8008 69.1455 21.0664C69.7542 21.321 70.2855 21.6751 70.7393 22.1289C71.193 22.5827 71.5472 23.1139 71.8018 23.7227C72.0674 24.3314 72.2002 24.9788 72.2002 25.665V33.335ZM70.1582 25.5488C70.1582 25.1393 70.0807 24.7575 69.9258 24.4033C69.7708 24.0381 69.5605 23.7227 69.2949 23.457C69.0293 23.1914 68.7139 22.9811 68.3486 22.8262C67.9945 22.6712 67.6126 22.5938 67.2031 22.5938H65.8418C65.4323 22.5938 65.0449 22.6712 64.6797 22.8262C64.3255 22.9811 64.0156 23.1914 63.75 23.457C63.4844 23.7227 63.2741 24.0381 63.1191 24.4033C62.9642 24.7575 62.8867 25.1393 62.8867 25.5488V33.4512C62.8867 33.8607 62.9642 34.248 63.1191 34.6133C63.2741 34.9674 63.4844 35.2773 63.75 35.543C64.0156 35.8086 64.3255 36.0189 64.6797 36.1738C65.0449 36.3288 65.4323 36.4062 65.8418 36.4062H67.2031C67.6126 36.4062 67.9945 36.3288 68.3486 36.1738C68.7139 36.0189 69.0293 35.8086 69.2949 35.543C69.5605 35.2773 69.7708 34.9674 69.9258 34.6133C70.0807 34.248 70.1582 33.8607 70.1582 33.4512V25.5488ZM85.5977 38V25.5488C85.5977 25.1393 85.5202 24.7575 85.3652 24.4033C85.2103 24.0381 85 23.7227 84.7344 23.457C84.4688 23.1914 84.1533 22.9811 83.7881 22.8262C83.4339 22.6712 83.0521 22.5938 82.6426 22.5938H81.2812C80.8717 22.5938 80.4844 22.6712 80.1191 22.8262C79.765 22.9811 79.4551 23.1914 79.1895 23.457C78.9238 23.7227 78.7135 24.0381 78.5586 24.4033C78.4036 24.7575 78.3262 25.1393 78.3262 25.5488V38H76.2842V21H76.9648L78.0771 22.7266C78.542 22.0957 79.123 21.5977 79.8203 21.2324C80.5286 20.8561 81.2979 20.668 82.1279 20.668H82.6426C83.3288 20.668 83.9762 20.8008 84.585 21.0664C85.1937 21.321 85.7249 21.6751 86.1787 22.1289C86.6325 22.5827 86.9867 23.1139 87.2412 23.7227C87.5068 24.3314 87.6396 24.9788 87.6396 25.665V38H85.5977ZM101.037 38V25.5488C101.037 25.1393 100.96 24.7575 100.805 24.4033C100.65 24.0381 100.439 23.7227 100.174 23.457C99.9082 23.1914 99.5928 22.9811 99.2275 22.8262C98.8734 22.6712 98.4915 22.5938 98.082 22.5938H96.7207C96.3112 22.5938 95.9238 22.6712 95.5586 22.8262C95.2044 22.9811 94.8945 23.1914 94.6289 23.457C94.3633 23.7227 94.153 24.0381 93.998 24.4033C93.8431 24.7575 93.7656 25.1393 93.7656 25.5488V38H91.7236V21H92.4043L93.5166 22.7266C93.9814 22.0957 94.5625 21.5977 95.2598 21.2324C95.9681 20.8561 96.7373 20.668 97.5674 20.668H98.082C98.7682 20.668 99.4157 20.8008 100.024 21.0664C100.633 21.321 101.164 21.6751 101.618 22.1289C102.072 22.5827 102.426 23.1139 102.681 23.7227C102.946 24.3314 103.079 24.9788 103.079 25.665V38H101.037ZM118.519 33.335C118.519 34.0212 118.386 34.6686 118.12 35.2773C117.866 35.8861 117.511 36.4173 117.058 36.8711C116.604 37.3249 116.073 37.6846 115.464 37.9502C114.855 38.2048 114.208 38.332 113.521 38.332H112.16C111.474 38.332 110.826 38.2048 110.218 37.9502C109.609 37.6846 109.078 37.3249 108.624 36.8711C108.17 36.4173 107.811 35.8861 107.545 35.2773C107.29 34.6686 107.163 34.0212 107.163 33.335V25.665C107.163 24.9788 107.29 24.3314 107.545 23.7227C107.811 23.1139 108.17 22.5827 108.624 22.1289C109.078 21.6751 109.609 21.321 110.218 21.0664C110.826 20.8008 111.474 20.668 112.16 20.668H113.521C114.208 20.668 114.855 20.8008 115.464 21.0664C116.073 21.321 116.604 21.6751 117.058 22.1289C117.511 22.5827 117.866 23.1139 118.12 23.7227C118.386 24.3314 118.519 24.9788 118.519 25.665V29.666H109.205V33.4512C109.205 33.8607 109.283 34.248 109.438 34.6133C109.592 34.9674 109.803 35.2773 110.068 35.543C110.334 35.8086 110.644 36.0189 110.998 36.1738C111.363 36.3288 111.751 36.4062 112.16 36.4062H113.521C113.931 36.4062 114.313 36.3288 114.667 36.1738C115.032 36.0189 115.348 35.8086 115.613 35.543C115.879 35.2773 116.089 34.9674 116.244 34.6133C116.399 34.248 116.477 33.8607 116.477 33.4512V32.3223L118.519 32.6543V33.335ZM116.477 25.5488C116.477 25.1393 116.399 24.7575 116.244 24.4033C116.089 24.0381 115.879 23.7227 115.613 23.457C115.348 23.1914 115.032 22.9811 114.667 22.8262C114.313 22.6712 113.931 22.5938 113.521 22.5938H112.16C111.751 22.5938 111.363 22.6712 110.998 22.8262C110.644 22.9811 110.334 23.1914 110.068 23.457C109.803 23.7227 109.592 24.0381 109.438 24.4033C109.283 24.7575 109.205 25.1393 109.205 25.5488V28.0723H116.477V25.5488ZM133.958 33.335C133.958 34.0212 133.825 34.6686 133.56 35.2773C133.305 35.8861 132.951 36.4173 132.497 36.8711C132.043 37.3249 131.512 37.6846 130.903 37.9502C130.295 38.2048 129.647 38.332 128.961 38.332H127.6C126.913 38.332 126.266 38.2048 125.657 37.9502C125.049 37.6846 124.517 37.3249 124.063 36.8711C123.61 36.4173 123.25 35.8861 122.984 35.2773C122.73 34.6686 122.603 34.0212 122.603 33.335V25.665C122.603 24.9788 122.73 24.3314 122.984 23.7227C123.25 23.1139 123.61 22.5827 124.063 22.1289C124.517 21.6751 125.049 21.321 125.657 21.0664C126.266 20.8008 126.913 20.668 127.6 20.668H128.961C129.647 20.668 130.295 20.8008 130.903 21.0664C131.512 21.321 132.043 21.6751 132.497 22.1289C132.951 22.5827 133.305 23.1139 133.56 23.7227C133.825 24.3314 133.958 24.9788 133.958 25.665V26.3457L131.916 26.6777V25.5488C131.916 25.1393 131.839 24.7575 131.684 24.4033C131.529 24.0381 131.318 23.7227 131.053 23.457C130.787 23.1914 130.472 22.9811 130.106 22.8262C129.752 22.6712 129.37 22.5938 128.961 22.5938H127.6C127.19 22.5938 126.803 22.6712 126.438 22.8262C126.083 22.9811 125.773 23.1914 125.508 23.457C125.242 23.7227 125.032 24.0381 124.877 24.4033C124.722 24.7575 124.645 25.1393 124.645 25.5488V33.4512C124.645 33.8607 124.722 34.248 124.877 34.6133C125.032 34.9674 125.242 35.2773 125.508 35.543C125.773 35.8086 126.083 36.0189 126.438 36.1738C126.803 36.3288 127.19 36.4062 127.6 36.4062H128.961C129.37 36.4062 129.752 36.3288 130.106 36.1738C130.472 36.0189 130.787 35.8086 131.053 35.543C131.318 35.2773 131.529 34.9674 131.684 34.6133C131.839 34.248 131.916 33.8607 131.916 33.4512V32.3223L133.958 32.6543V33.335Z" fill="white"/>
<path d="M143.412 15.342H137.02V12.01H153.646V15.342H147.186V37H143.412V15.342ZM157.278 12.01H168.226V15.342H161.052V22.244H166.832V25.644H161.052V33.634H169.348V37H157.278V12.01ZM173.149 12.01H184.097V15.342H176.923V22.244H182.703V25.644H176.923V33.634H185.219V37H173.149V12.01ZM192.76 20.816L192.862 23.536V37H189.054V11.976H189.53L204.218 28.364L204.082 25.508V12.01H207.89V37H207.38L192.76 20.816ZM218.939 37.34C217.579 37.34 216.23 37.102 214.893 36.626C213.556 36.15 212.592 35.6173 212.003 35.028L213.805 31.798C214.281 32.2287 215.018 32.682 216.015 33.158C217.035 33.6113 218.01 33.838 218.939 33.838C220.14 33.838 221.115 33.5547 221.863 32.988C222.634 32.4213 223.019 31.6393 223.019 30.642C223.019 29.8713 222.815 29.2027 222.407 28.636C221.999 28.0693 221.5 27.6047 220.911 27.242C220.322 26.8567 219.483 26.392 218.395 25.848C217.103 25.2133 216.219 24.7373 215.743 24.42C213.544 22.9467 212.445 20.9067 212.445 18.3C212.445 16.1467 213.159 14.5033 214.587 13.37C216.015 12.214 217.817 11.636 219.993 11.636C222.328 11.636 224.311 12.3047 225.943 13.642L224.141 16.736C223.71 16.2827 223.098 15.8973 222.305 15.58C221.534 15.24 220.707 15.07 219.823 15.07C218.69 15.07 217.794 15.3307 217.137 15.852C216.502 16.3507 216.185 17.0987 216.185 18.096C216.185 18.7987 216.389 19.4333 216.797 20C217.205 20.544 217.715 21.02 218.327 21.428C218.962 21.836 219.812 22.3347 220.877 22.924C221.897 23.4907 222.679 23.944 223.223 24.284C223.767 24.6013 224.277 24.9867 224.753 25.44C225.41 26.0293 225.943 26.732 226.351 27.548C226.759 28.364 226.963 29.2593 226.963 30.234C226.963 31.7527 226.612 33.0447 225.909 34.11C225.229 35.1753 224.277 35.98 223.053 36.524C221.852 37.068 220.48 37.34 218.939 37.34Z" fill="white"/>
</svg>
