<svg width="120" height="120" viewBox="0 0 120 120" fill="none" xmlns="http://www.w3.org/2000/svg">
<circle cx="60" cy="60" r="60" fill="url(#paint0_linear_62_52)"/>
<path d="M60 5.00671e-06C48.1331 5.52543e-06 36.5327 3.51894 26.6658 10.1118C16.7988 16.7047 9.10848 26.0754 4.56722 37.039C0.0259669 48.0026 -1.16223 60.0666 1.15288 71.7054C3.468 83.3443 9.18244 94.0353 17.5736 102.426C25.9647 110.818 36.6557 116.532 48.2946 118.847C59.9334 121.162 71.9974 119.974 82.961 115.433C93.9246 110.892 103.295 103.201 109.888 93.3342C116.481 83.4673 120 71.8669 120 60L107.799 60C107.799 69.4537 104.996 78.6951 99.7433 86.5556C94.4911 94.4161 87.0259 100.543 78.2918 104.16C69.5577 107.778 59.947 108.725 50.6749 106.88C41.4028 105.036 32.8859 100.484 26.2011 93.7989C19.5163 87.1141 14.9639 78.5972 13.1196 69.3251C11.2752 60.053 12.2218 50.4423 15.8396 41.7082C19.4574 32.9741 25.5839 25.5089 33.4444 20.2567C41.3048 15.0045 50.5463 12.2011 60 12.2011L60 5.00671e-06Z" fill="url(#paint1_linear_62_52)"/>
<path d="M43.5881 68C43.3881 68 43.3215 67.9067 43.3881 67.72L47.6481 56.96C47.6615 56.9333 47.6548 56.9067 47.6281 56.88C47.6148 56.8533 47.5948 56.84 47.5681 56.84H44.4081C44.3415 56.84 44.3081 56.8733 44.3081 56.94V57.88C44.3081 57.9467 44.2815 58.0067 44.2281 58.06C44.1881 58.1 44.1348 58.12 44.0681 58.12H41.8481C41.7815 58.12 41.7215 58.1 41.6681 58.06C41.6281 58.0067 41.6081 57.9467 41.6081 57.88L41.6281 54.24C41.6281 54.1733 41.6481 54.12 41.6881 54.08C41.7415 54.0267 41.8015 54 41.8681 54H50.9281C50.9948 54 51.0481 54.0267 51.0881 54.08C51.1415 54.12 51.1681 54.1733 51.1681 54.24V56.68C51.1681 56.76 51.1481 56.86 51.1081 56.98L46.8881 67.82C46.8481 67.94 46.7548 68 46.6081 68H43.5881ZM61.4863 61.54C61.7129 62.18 61.8263 62.82 61.8263 63.46C61.8263 64.1267 61.7063 64.7667 61.4663 65.38C61.1196 66.2067 60.5396 66.8733 59.7263 67.38C58.9263 67.8733 57.9996 68.12 56.9463 68.12C55.8929 68.12 54.9663 67.88 54.1663 67.4C53.3663 66.9067 52.7863 66.24 52.4263 65.4C52.2796 65.0267 52.1729 64.6267 52.1063 64.2V64.16C52.1063 64.0133 52.1863 63.94 52.3463 63.94H55.2663C55.3863 63.94 55.4796 64.0067 55.5463 64.14C55.5596 64.22 55.6063 64.3267 55.6863 64.46C55.9396 65.0067 56.3463 65.28 56.9063 65.28C57.1863 65.28 57.4396 65.2133 57.6663 65.08C57.8929 64.9333 58.0729 64.7267 58.2063 64.46C58.3529 64.1933 58.4263 63.86 58.4263 63.46C58.4263 63.0867 58.3596 62.7667 58.2263 62.5C58.1329 62.26 57.9729 62.0733 57.7463 61.94C57.5329 61.7933 57.2863 61.72 57.0063 61.72C56.6996 61.72 56.4129 61.7933 56.1463 61.94C55.8796 62.0867 55.6996 62.2733 55.6063 62.5C55.5663 62.6333 55.4796 62.7 55.3463 62.7H52.3663C52.2996 62.7 52.2396 62.68 52.1863 62.64C52.1463 62.5867 52.1263 62.5267 52.1263 62.46V54.24C52.1263 54.1733 52.1463 54.12 52.1863 54.08C52.2396 54.0267 52.2996 54 52.3663 54H61.1263C61.1929 54 61.2463 54.0267 61.2863 54.08C61.3396 54.12 61.3663 54.1733 61.3663 54.24V56.6C61.3663 56.6667 61.3396 56.7267 61.2863 56.78C61.2463 56.82 61.1929 56.84 61.1263 56.84H55.5463C55.4796 56.84 55.4463 56.8733 55.4463 56.94V59.28C55.4463 59.32 55.4596 59.3467 55.4863 59.36C55.5129 59.3733 55.5396 59.3667 55.5663 59.34C56.1129 59.02 56.7329 58.86 57.4263 58.86C58.3729 58.86 59.2063 59.1 59.9263 59.58C60.6463 60.06 61.1663 60.7133 61.4863 61.54ZM66.6238 60.38C66.0238 60.38 65.4704 60.2333 64.9638 59.94C64.4571 59.6467 64.0571 59.2533 63.7638 58.76C63.4704 58.2533 63.3238 57.7 63.3238 57.1C63.3238 56.5 63.4704 55.9533 63.7638 55.46C64.0571 54.9667 64.4571 54.5733 64.9638 54.28C65.4704 53.9867 66.0238 53.84 66.6238 53.84C67.2238 53.84 67.7771 53.9867 68.2838 54.28C68.7904 54.5733 69.1904 54.9733 69.4838 55.48C69.7771 55.9733 69.9238 56.5133 69.9238 57.1C69.9238 57.7 69.7771 58.2533 69.4838 58.76C69.1904 59.2533 68.7904 59.6467 68.2838 59.94C67.7771 60.2333 67.2238 60.38 66.6238 60.38ZM65.7238 68C65.6304 68 65.5704 67.9733 65.5438 67.92C65.5171 67.8667 65.5238 67.8 65.5638 67.72L73.1038 54.16C73.1704 54.0533 73.2704 54 73.4038 54H75.2238C75.3171 54 75.3771 54.0267 75.4038 54.08C75.4304 54.1333 75.4238 54.2 75.3838 54.28L67.8638 67.84C67.7971 67.9467 67.6971 68 67.5638 68H65.7238ZM66.6238 58.46C66.9971 58.46 67.3104 58.3333 67.5638 58.08C67.8304 57.8133 67.9638 57.4867 67.9638 57.1C67.9638 56.7267 67.8304 56.4067 67.5638 56.14C67.3104 55.8733 66.9971 55.74 66.6238 55.74C66.2504 55.74 65.9304 55.8733 65.6638 56.14C65.4104 56.4067 65.2837 56.7267 65.2837 57.1C65.2837 57.4733 65.4104 57.7933 65.6638 58.06C65.9304 58.3267 66.2504 58.46 66.6238 58.46ZM74.5638 68.16C73.9638 68.16 73.4104 68.0133 72.9037 67.72C72.3971 67.4267 71.9971 67.0333 71.7038 66.54C71.4104 66.0333 71.2638 65.48 71.2638 64.88C71.2638 64.2933 71.4104 63.7533 71.7038 63.26C71.9971 62.7533 72.3971 62.3533 72.9037 62.06C73.4104 61.7667 73.9638 61.62 74.5638 61.62C75.1504 61.62 75.6971 61.7667 76.2038 62.06C76.7104 62.3533 77.1104 62.7533 77.4038 63.26C77.6971 63.7533 77.8438 64.2933 77.8438 64.88C77.8438 65.48 77.6971 66.0333 77.4038 66.54C77.1104 67.0333 76.7104 67.4267 76.2038 67.72C75.7104 68.0133 75.1638 68.16 74.5638 68.16ZM74.5638 66.26C74.9371 66.26 75.2504 66.1267 75.5038 65.86C75.7571 65.5933 75.8838 65.2667 75.8838 64.88C75.8838 64.5067 75.7504 64.1933 75.4838 63.94C75.2304 63.6733 74.9238 63.54 74.5638 63.54C74.1904 63.54 73.8704 63.6733 73.6038 63.94C73.3371 64.1933 73.2038 64.5067 73.2038 64.88C73.2038 65.2667 73.3304 65.5933 73.5838 65.86C73.8504 66.1267 74.1771 66.26 74.5638 66.26Z" fill="#E6E6E6"/>
<defs>
<linearGradient id="paint0_linear_62_52" x1="60" y1="0" x2="60" y2="120" gradientUnits="userSpaceOnUse">
<stop stop-color="#191C24"/>
<stop offset="1" stop-color="#191C24" stop-opacity="0.71"/>
</linearGradient>
<linearGradient id="paint1_linear_62_52" x1="23.5" y1="28.5" x2="112.5" y2="74" gradientUnits="userSpaceOnUse">
<stop stop-color="#00DEA5"/>
<stop offset="1" stop-color="#00DEA5" stop-opacity="0.55"/>
</linearGradient>
</defs>
</svg>
