<svg width="552" height="341" viewBox="0 0 552 341" fill="none" xmlns="http://www.w3.org/2000/svg">
<path d="M421 175.5C421 266.903 346.903 341 255.5 341C164.097 341 90 266.903 90 175.5C90 84.0969 164.097 10 255.5 10C346.903 10 421 84.0969 421 175.5Z" fill="#F4F4F4" fill-opacity="0.08"/>
<path d="M236.932 34.9717H220.932C218.075 34.9717 215.752 32.6479 215.752 29.7918V5.17992C215.752 2.32388 218.075 0 220.932 0H236.932C239.788 0 242.112 2.32388 242.112 5.17992V29.7918C242.112 32.6479 239.788 34.9717 236.932 34.9717Z" fill="#E6E6E6"/>
<path d="M271.953 34.9717H255.953C253.097 34.9717 250.773 32.6479 250.773 29.7918V5.17992C250.773 2.32388 253.097 0 255.953 0H271.953C274.81 0 277.133 2.32388 277.133 5.17992V29.7918C277.133 32.6479 274.81 34.9717 271.953 34.9717Z" fill="#CCCCCC"/>
<path d="M309.271 34.9717H293.271C290.415 34.9717 288.091 32.6479 288.091 29.7918V5.17992C288.091 2.32388 290.415 0 293.271 0H309.271C312.127 0 314.451 2.32388 314.451 5.17992V29.7918C314.451 32.6479 312.127 34.9717 309.271 34.9717Z" fill="#E6E6E6"/>
<path d="M134.237 114.846C137.01 112.025 140.713 111.168 142.508 112.933C144.304 114.698 143.511 118.415 140.737 121.237C139.645 122.38 138.294 123.244 136.799 123.758L124.901 135.564L119.479 129.863L131.785 118.829C132.272 117.324 133.113 115.959 134.237 114.846Z" fill="#A0616A"/>
<path d="M96.184 105.1L108.659 132.776L128.581 121.993L135.71 125.777C135.71 125.777 119.425 153.002 108.274 149.903C97.1239 146.804 77.3236 118.702 80.8911 110.028C84.4587 101.355 96.184 105.1 96.184 105.1Z" fill="white"/>
<path d="M444.099 12.388H473.548L485.085 20.7524L455.006 22.4252L444.099 12.388Z" fill="#E6E6E6"/>
<path d="M0 290.242C0 290.794 0.443338 291.237 0.995412 291.237H498.083C498.635 291.237 499.078 290.794 499.078 290.242C499.078 289.69 498.635 289.247 498.083 289.247H0.995412C0.443338 289.247 0 289.69 0 290.242Z" fill="white" fill-opacity="0.3"/>
<path d="M503.619 78.4888L515.208 83.9786C510.454 77.345 506.359 66.9847 504.166 58.7407C500.453 66.4201 494.468 75.8163 488.544 81.4291L500.792 78.278C493.245 115.268 464.857 141.823 432.349 141.823L431.888 143.159C465.844 143.159 495.912 116.972 503.619 78.4888Z" fill="#E6E6E6"/>
<path d="M264.397 59.2508L275.986 64.7407C271.233 58.107 267.137 47.7468 264.944 39.5027C261.231 47.1821 255.246 56.5784 249.322 62.1911L261.571 59.0401C254.023 96.0299 225.635 122.585 193.127 122.585L192.667 123.921C226.623 123.921 256.691 97.734 264.397 59.2508Z" fill="#E6E6E6"/>
<path d="M442.152 170.565C440.507 168.606 438.537 167.274 436.768 166.762L415.964 143.243C415.964 143.243 414.226 121.351 412.836 113.706C411.446 106.061 402.063 108.146 402.063 108.146L403.106 130.038L409.013 153.669L433.358 174.337C433.783 175.111 434.304 175.886 434.929 176.629C437.891 180.157 441.908 181.659 443.903 179.984C445.898 178.31 445.114 174.092 442.152 170.565Z" fill="#FFB6B6"/>
<path d="M342.215 170.565C343.86 168.606 345.83 167.274 347.599 166.762L368.404 143.243C368.404 143.243 370.141 121.351 371.531 113.706C372.921 106.061 382.304 108.146 382.304 108.146L381.261 130.038L375.354 153.669L351.009 174.337C350.584 175.111 350.063 175.886 349.438 176.629C346.477 180.157 342.459 181.659 340.464 179.984C338.469 178.31 339.253 174.092 342.215 170.565Z" fill="#FFB6B6"/>
<path d="M387.989 105.192L390.403 95.9142L399.805 95.462L402.617 108.251L387.989 105.192Z" fill="#FFB6B6"/>
<path d="M387.989 105.192L390.403 95.9142L399.805 95.462L402.617 108.251L387.989 105.192Z" fill="black"/>
<path d="M363.981 257.188L355.176 256.685L356.331 283.71L362.298 284.051L363.981 257.188Z" fill="#FFB6B6"/>
<path d="M355.568 275.165L358.625 276.56L358.621 278.413C358.621 278.413 359.359 276.268 363.319 275.8L363.791 277.597C363.791 277.597 365.327 279.36 365.064 282.548L364.056 291.086L361.07 291.017L360.587 285.076C360.587 285.076 359.765 283.728 355.976 290.134C355.976 290.134 351.802 291.186 345.338 289.019C344.449 288.721 343.832 287.892 343.844 286.955C343.85 286.438 344.053 285.96 344.701 285.788C346.351 285.352 347.963 285.905 349.029 284.588C350.094 283.271 355.568 275.165 355.568 275.165Z" fill="#DDDDDD"/>
<path d="M411.242 257.188L402.436 256.685L403.591 283.71L409.558 284.051L411.242 257.188Z" fill="#FFB6B6"/>
<path d="M402.828 275.165L405.886 276.56L405.882 278.413C405.882 278.413 406.62 276.268 410.579 275.8L411.052 277.597C411.052 277.597 412.588 279.36 412.324 282.548L411.316 291.086L408.33 291.017L407.848 285.076C407.848 285.076 407.025 283.728 403.236 290.134C403.236 290.134 399.062 291.186 392.598 289.019C391.71 288.721 391.093 287.892 391.105 286.955C391.111 286.438 391.313 285.96 391.961 285.788C393.612 285.352 395.223 285.905 396.289 284.588C397.355 283.271 402.828 275.165 402.828 275.165Z" fill="#DDDDDD"/>
<path d="M395.218 101.378C400.976 101.378 405.643 96.7105 405.643 90.9529C405.643 85.1953 400.976 80.5278 395.218 80.5278C389.46 80.5278 384.793 85.1953 384.793 90.9529C384.793 96.7105 389.46 101.378 395.218 101.378Z" fill="#FFB6B6"/>
<path d="M401.13 92.6859C401.13 92.6859 396.546 85.1861 391.958 86.0139C387.37 86.8417 384.978 87.5891 384.978 87.5891C384.978 87.5891 383.11 81.6095 389.383 78.7407C389.383 78.7407 380.505 71.3082 389.967 66.5383C399.428 61.7684 405.315 66.3912 405.315 66.3912C405.315 66.3912 413.146 73.0322 404.464 79.1781C404.464 79.1781 411.978 87.7378 404.388 95.9142C404.388 95.9142 405.728 89.6883 403.906 90.9647C402.083 92.241 401.13 92.6859 401.13 92.6859Z" fill="#2F2E41"/>
<path d="M402.237 105.887L387.989 104.15L377.043 113.011C377.043 113.011 371.599 128.179 375.653 137.336C375.75 137.555 375.827 152.8 375.827 152.8H406.098C406.098 152.8 406.069 142.424 407.225 138.666C407.391 138.129 407.58 137.727 407.797 137.51C409.535 135.772 413.705 124.652 411.62 119.787C409.535 114.922 402.237 105.887 402.237 105.887Z" fill="#E6E6E6"/>
<path d="M375.653 152.105L356.54 212.918L352.37 260.873H364.012L373.916 216.393L387.554 190.645L401.021 264.348H412.772L412.488 164.615L406.073 152.105H375.653Z" fill="white"/>
<path d="M391.873 226.882C417.685 226.882 438.609 205.958 438.609 180.146C438.609 154.335 417.685 133.411 391.873 133.411C366.062 133.411 345.138 154.335 345.138 180.146C345.138 205.958 366.062 226.882 391.873 226.882Z" fill="#F50058"/>
<path d="M90.7137 289.548L99.8103 289.547L104.138 254.46L90.7119 254.461L90.7137 289.548Z" fill="#A0616A"/>
<path d="M121.88 289.341C122.163 289.818 122.312 291.358 122.312 291.913C122.312 293.618 120.93 295 119.225 295H91.054C89.8907 295 88.9477 294.057 88.9477 292.894V291.721C88.9477 291.721 87.5541 288.196 90.4233 283.851C90.4233 283.851 93.9893 287.253 99.3177 281.925L100.889 279.078L112.263 287.397L118.568 288.173C119.947 288.342 121.17 288.146 121.88 289.341Z" fill="#D3D3D3"/>
<path d="M97.5971 106.876L97.7811 94.6074L90.2151 89.891L81.9879 99.9545L97.5971 106.876Z" fill="#A0616A"/>
<path d="M97.5971 106.876L98.0868 94.9131L90.2151 89.891L92.8895 104.696L97.5971 106.876Z" fill="black"/>
<path d="M97.6207 98.4253C105.052 98.4253 111.077 92.4009 111.077 84.9695C111.077 77.5381 105.052 71.5138 97.6207 71.5138C90.1892 71.5138 84.1649 77.5381 84.1649 84.9695C84.1649 92.4009 90.1892 98.4253 97.6207 98.4253Z" fill="#A0616A"/>
<path d="M115.972 188.006L103.437 273.302H87.7105L90.9023 199.012L87.7105 186.825C87.7105 186.825 86.2553 184.117 85.0293 180.833C83.6475 177.128 82.556 172.686 84.1764 170.579C84.7725 169.803 86.3225 169.228 88.429 168.8C89.7161 168.537 91.2141 168.332 92.8314 168.173C102.132 167.253 115.36 167.828 115.36 167.828L115.972 188.006Z" fill="white"/>
<path d="M74.6898 285.376L83.6898 286.698L93.0747 252.614L79.7917 250.662L74.6898 285.376Z" fill="#A0616A"/>
<path d="M105.554 289.705C105.765 290.218 105.689 291.763 105.608 292.312C105.36 293.999 103.792 295.166 102.105 294.918L74.2334 290.82C73.0825 290.651 72.2867 289.581 72.4559 288.43L72.6265 287.269C72.6265 287.269 71.7605 283.579 75.2311 279.698C75.2311 279.698 78.2643 283.583 84.3111 279.086L86.2798 276.498L96.3231 286.383L102.448 288.067C103.788 288.436 105.026 288.42 105.554 289.705Z" fill="#D3D3D3"/>
<path d="M116.169 173.78L114.45 188.587L89.6394 271.154L74.082 268.867L88.0446 195.832L86.6621 183.308C86.6621 183.308 86.2119 182.063 85.6958 180.241C84.6713 176.635 83.3865 170.764 84.8 167.768C84.9909 167.361 85.2305 167.008 85.5269 166.722C86.0829 166.183 87.2129 165.855 88.7268 165.682C95.0548 164.967 108.087 167.012 113.886 168.016L116.169 173.78Z" fill="white"/>
<path d="M83.7178 97.3589L99.004 104.696C99.004 104.696 115.207 152.695 115.207 155.14C115.207 157.586 119.793 159.115 117.042 161.866C114.29 164.618 122.163 166.948 117.921 169.146C113.679 171.344 87.2155 183.366 84.273 182.281C76.1572 179.291 84.6169 168.305 84.6169 168.305C84.6169 168.305 78.5205 163.395 79.4376 160.949C80.3548 158.503 73.9346 111.728 73.9346 111.728L83.7178 97.3589Z" fill="white"/>
<path d="M96.799 88.1924L98.5296 91.6538C98.5296 91.6538 100.26 85.4233 103.029 84.0388C105.799 82.6542 106.145 80.5774 106.145 80.5774C106.145 80.5774 109.606 85.0772 112.029 84.0388C114.452 83.0004 115.49 82.3081 112.721 78.1544C109.952 74.0008 110.645 76.0776 110.645 76.0776C110.645 76.0776 108.222 72.6162 108.568 73.6547C108.914 74.6931 106.491 70.8856 106.491 71.924C106.491 72.9624 104.76 69.8472 104.76 70.8856C104.76 71.924 97.4912 68.4626 98.5296 69.8472C99.568 71.2317 92.2991 67.0781 88.8377 72.6163C85.3763 78.1545 80.5767 77.1303 82.2842 80.5845C83.9918 84.0388 83.2995 93.3845 83.2995 93.3845H88.0732C88.0732 93.3845 92.9914 84.0388 96.799 88.1924Z" fill="#2F2E41"/>
<path d="M485.085 20.7524H456.646V49.1911H485.085V20.7524Z" fill="#E6E6E6"/>
<path d="M552 20.7524L552 49.1911H523.561C523.561 33.4954 536.304 20.7524 552 20.7524Z" fill="#E6E6E6"/>
<path d="M504.323 49.1911C511.714 49.1911 517.706 43.1994 517.706 35.8082C517.706 28.417 511.714 22.4252 504.323 22.4252C496.932 22.4252 490.94 28.417 490.94 35.8082C490.94 43.1994 496.932 49.1911 504.323 49.1911Z" fill="#CCCCCC"/>
<path d="M456.646 20.7524L444.099 12.388V34.9717L456.646 49.1911" fill="#F2F2F2"/>
<path d="M256.022 11.517L271.754 11.0414C272.847 11.0083 272.952 9.29913 271.849 9.33247L256.117 9.80809C255.024 9.84112 254.919 11.5503 256.022 11.517Z" fill="white"/>
<path d="M256.022 17.2582L271.754 16.7826C272.847 16.7495 272.952 15.0403 271.849 15.0737L256.117 15.5493C255.024 15.5823 254.919 17.2915 256.022 17.2582Z" fill="white"/>
<path d="M256.022 22.9994L271.754 22.5238C272.847 22.4907 272.952 20.7815 271.849 20.8149L256.117 21.2905C255.024 21.3235 254.919 23.0327 256.022 22.9994Z" fill="white"/>
<path d="M220.682 12.9725C223.289 9.79705 228.007 12.9836 231.076 13.5217C232.87 13.8365 234.723 13.6703 236.238 12.5824C237.58 11.619 238.543 10.1689 238.797 8.52663C238.965 7.44228 237.306 6.97503 237.136 8.06876C236.897 9.61338 235.944 10.966 234.496 11.608C232.748 12.3828 230.743 11.7587 229.042 11.1667C226.01 10.1113 221.914 8.77146 219.464 11.7546C218.766 12.6047 219.978 13.8301 220.682 12.9725Z" fill="white"/>
<path d="M220.682 19.8619C223.289 16.6865 228.007 19.8731 231.076 20.4112C232.87 20.7259 234.723 20.5598 236.238 19.4718C237.58 18.5084 238.543 17.0583 238.797 15.4161C238.965 14.3317 237.306 13.8645 237.136 14.9582C236.897 16.5028 235.944 17.8555 234.496 18.4975C232.748 19.2723 230.743 18.6481 229.042 18.0562C226.01 17.0007 221.914 15.6609 219.464 18.644C218.766 19.4941 219.978 20.7195 220.682 19.8619Z" fill="white"/>
<path d="M174.951 161.691H135.269C132.643 161.691 130.507 159.555 130.507 156.929V100.375C130.507 97.7492 132.643 95.6132 135.269 95.6132H174.951C177.576 95.6132 179.712 97.7492 179.712 100.375V156.929C179.712 159.555 177.576 161.691 174.951 161.691Z" fill="#00DEA5"/>
<path d="M294.482 7.39497C295.311 14.4121 295.581 21.4904 295.258 28.5495C295.207 29.6435 296.907 29.9349 296.957 28.8279C297.287 21.6124 297.043 14.3853 296.195 7.21162C296.066 6.11287 294.352 6.29031 294.482 7.39497Z" fill="white"/>
<path d="M300.224 7.39497C301.052 14.4121 301.322 21.4904 300.999 28.5495C300.949 29.6435 302.648 29.9349 302.698 28.8279C303.029 21.6124 302.784 14.3853 301.937 7.21162C301.807 6.11287 300.093 6.29031 300.224 7.39497Z" fill="white"/>
<path d="M305.965 7.39497C306.794 14.4121 307.063 21.4904 306.74 28.5495C306.69 29.6435 308.389 29.9349 308.44 28.8279C308.77 21.6124 308.525 14.3853 307.678 7.21162C307.548 6.11287 305.834 6.29031 305.965 7.39497Z" fill="white"/>
<path d="M130.296 139.653C134.09 138.532 137.744 139.581 138.456 141.996C139.169 144.41 136.672 147.275 132.877 148.396C131.367 148.864 129.767 148.964 128.21 148.688L112.076 153.233L110.104 145.617L126.219 141.944C127.376 140.866 128.774 140.08 130.296 139.653Z" fill="#A0616A"/>
<path d="M101.759 112.66L99.2305 142.911L121.882 143.155L126.278 149.924C126.278 149.924 98.8232 165.821 90.5794 157.698C82.3356 149.575 78.6675 115.395 85.997 109.544C93.3265 103.693 101.759 112.66 101.759 112.66Z" fill="white"/>
<path d="M139.48 117.173L170.5 116.235C172.655 116.17 172.862 112.8 170.688 112.866L139.667 113.803C137.513 113.869 137.306 117.239 139.48 117.173Z" fill="white"/>
<path d="M139.48 128.421L170.5 127.484C172.655 127.419 172.862 124.049 170.688 124.114L139.667 125.052C137.513 125.117 137.306 128.487 139.48 128.421Z" fill="white"/>
<path d="M139.48 139.67L170.5 138.732C172.655 138.667 172.862 135.297 170.688 135.363L139.667 136.301C137.513 136.366 137.306 139.736 139.48 139.67Z" fill="white"/>
</svg>
