<svg width="408" height="360" viewBox="0 0 408 360" fill="none" xmlns="http://www.w3.org/2000/svg">
<path d="M372.277 174.857C372.277 265.717 298.62 339.373 207.761 339.373C116.901 339.373 43.2445 265.717 43.2445 174.857C43.2445 83.9973 116.901 10.341 207.761 10.341C298.62 10.341 372.277 83.9973 372.277 174.857Z" fill="#F4F4F4"/>
<path d="M382.617 21.6221C382.617 33.5637 372.937 43.2442 360.995 43.2442C349.054 43.2442 339.373 33.5637 339.373 21.6221C339.373 9.68054 349.054 0 360.995 0C372.937 0 382.617 9.68054 382.617 21.6221Z" fill="#F4F4F4"/>
<path d="M408 65.3363C408 72.8647 401.897 78.9677 394.369 78.9677C386.84 78.9677 380.737 72.8647 380.737 65.3363C380.737 57.808 386.84 51.705 394.369 51.705C401.897 51.705 408 57.808 408 65.3363Z" fill="#F4F4F4"/>
<path d="M72.978 307.466C76.3571 318.92 69.8116 330.944 58.3581 334.323C46.9046 337.702 34.8804 331.157 31.5013 319.703C28.1221 308.25 34.6677 296.225 46.1212 292.846C57.5746 289.467 69.5989 296.013 72.978 307.466Z" fill="#F4F4F4"/>
<path d="M109.693 342.211C111.823 349.432 107.697 357.012 100.476 359.143C93.2554 361.273 85.6749 357.147 83.5446 349.926C81.4143 342.705 85.5408 335.125 92.7615 332.994C99.9822 330.864 107.563 334.991 109.693 342.211Z" fill="#F4F4F4"/>
<path d="M335.051 259.199H83.3182C80.9787 259.199 79.0755 257.299 79.0755 254.963C79.0755 252.627 80.9787 250.726 83.3182 250.726H335.051C337.391 250.726 339.294 252.627 339.294 254.963C339.294 257.299 337.391 259.199 335.051 259.199Z" fill="#E6E6E6"/>
<path d="M279.189 281.087H139.18C136.841 281.087 134.938 279.187 134.938 276.851C134.938 274.515 136.841 272.614 139.18 272.614H279.189C281.529 272.614 283.432 274.515 283.432 276.851C283.432 279.187 281.529 281.087 279.189 281.087Z" fill="#E6E6E6"/>
<path d="M111.331 111.438L127.196 104.771L134.001 118.701L117.329 125.495L111.331 111.438Z" fill="#FFB6B6"/>
<path d="M111.331 111.438L127.196 104.771L134.001 118.701L117.329 125.495L111.331 111.438Z" fill="black"/>
<path d="M113.587 106.13L129.238 124.137C129.238 124.137 118.35 158.45 107.462 161.508C96.5744 164.566 76.5001 179.514 76.5001 179.514L51.3221 163.207L63.5709 145.2C63.5709 145.2 93.172 104.771 100.998 104.771C108.823 104.771 113.587 106.13 113.587 106.13Z" fill="#F50058"/>
<path d="M92.4404 223.511H56.0073L42.1356 204.995C42.1356 204.995 33.9697 190.046 35.671 176.457C37.3722 162.867 55.0648 159.809 55.0648 159.809H55.7929L77.4528 178.814L76.1598 196.501L92.4404 223.511Z" fill="#2F2E41"/>
<path d="M63.4688 223.511H53.7038V209.072L63.4688 223.511Z" fill="#2F2E41"/>
<path d="M331.895 122.517L335.537 145.202L312.526 145.498V125.776L331.895 122.517Z" fill="#FFB6B6"/>
<path d="M331.895 122.517L335.537 145.202L312.526 145.498V125.776L331.895 122.517Z" fill="black"/>
<path d="M386.706 201.591L382.477 223.511H321.917C322.39 220.008 323.037 214.966 323.727 209.524C323.795 208.98 323.867 208.433 323.935 207.883C325.667 194.201 327.562 178.719 327.562 178.719L335.523 179.684L350.97 181.553L357.265 182.314L374.121 184.356C382.525 185.371 388.305 193.287 386.706 201.591Z" fill="#F2F2F2"/>
<path d="M274.086 201.591L269.857 223.511H209.297C209.77 220.008 210.416 214.966 211.107 209.524C211.175 208.98 211.246 208.433 211.314 207.883C213.046 194.201 214.941 178.719 214.941 178.719L261.5 184.356C269.904 185.371 275.685 193.287 274.086 201.591Z" fill="#F2F2F2"/>
<path d="M359.79 223.511H326.943C327.443 222.923 327.725 222.583 327.725 222.583L337.572 220.959L357.86 217.616C357.86 217.616 358.786 220.005 359.79 223.511Z" fill="#2F2E41"/>
<path d="M314.602 223.511H264.998C265.491 222.532 266.002 221.55 266.526 220.572C267.226 219.264 267.975 218.099 268.768 217.062C269.295 216.373 269.84 215.741 270.401 215.163C272.051 213.468 273.848 212.235 275.739 211.389C282.493 208.355 290.451 210.213 297.229 213.237C299.774 214.372 302.152 215.669 304.238 216.933C307.913 219.162 310.686 221.289 311.866 222.233C312.275 222.556 312.492 222.743 312.492 222.743L314.602 223.511Z" fill="#2F2E41"/>
<path d="M275.249 223.511H268.213L271.115 220.144L271.565 220.507L275.249 223.511Z" fill="#FFB6B6"/>
<path d="M362.192 223.511H301.601L304.238 216.933L309.682 203.337L308.178 196.946C308.178 196.946 307.436 196.423 306.307 195.482C302.282 192.153 293.323 183.578 295.382 174.771C297.722 164.749 300.662 145.217 301.285 141.008C301.363 140.481 301.404 140.196 301.404 140.196L310.148 138.056L311.376 137.753H334.799L352.025 149.403L352.022 149.525L350.97 181.553L350.521 195.254C350.521 195.254 349.98 197.232 350.11 200.303C350.195 202.409 350.593 205.029 351.695 207.883C352.862 210.917 354.825 214.212 358.048 217.429C360.48 219.859 361.661 221.904 362.192 223.511Z" fill="#00DEA5"/>
<path d="M357.265 182.314C356.69 187.023 356.139 190.369 356.139 190.369L350.11 200.303L337.572 220.959L336.408 222.879L335.578 223.511H310.676L311.866 222.233L323.727 209.524L325.262 207.883L327.749 205.216L335.523 179.684L344.686 149.593C344.686 149.593 348.398 148.302 352.022 149.525C353.927 150.167 355.812 151.506 357.108 154.102C359.589 159.055 358.381 173.222 357.265 182.314Z" fill="#00DEA5"/>
<path d="M313.459 181.492L306.307 195.482L297.229 213.237L296.151 215.35L286.906 223.511H265.974L269.424 219.23L270.707 217.633L275.739 211.389L286.229 198.363L288.274 155.006C288.613 147.815 294.1 142.002 301.242 141.015C301.257 141.013 301.271 141.011 301.285 141.008C303.605 140.543 307.293 140.407 310.148 143.162C310.247 143.254 310.342 143.352 310.437 143.454C310.917 143.96 311.37 144.555 311.785 145.251C311.826 145.319 311.866 145.391 311.904 145.462C312.023 145.679 312.139 145.917 312.244 146.172C315.888 154.645 313.459 181.492 313.459 181.492Z" fill="#00DEA5"/>
<path d="M220.461 118.234L234.746 138.405L209.829 139.148L207.154 120.192L220.461 118.234Z" fill="#A0616A"/>
<path d="M220.461 118.234L234.746 138.405L209.829 139.148L207.154 120.192L220.461 118.234Z" fill="black"/>
<path d="M150.016 160.028C148.183 154.748 143.969 151.413 140.604 152.579C137.24 153.744 135.999 158.968 137.833 164.249C138.537 166.369 139.739 168.289 141.338 169.85L149.387 192.122L159.773 188.128L150.736 166.596C151.025 164.38 150.778 162.128 150.016 160.028Z" fill="#A0616A"/>
<path d="M246.709 149.75L246.689 170.307L240.834 193.518L235.067 222.407C234.492 222.79 233.92 223.157 233.349 223.511H183.581C180.754 221.815 179.172 220.497 179.172 220.497C179.172 220.497 179.954 219.763 180.849 218.584C182.36 216.594 184.187 213.332 183.067 210.217C182.833 209.564 182.771 208.769 182.843 207.883C183.299 202.032 189.444 192.139 189.444 192.139L187.613 171.021L191.547 139.646L204.371 132.202L206.585 131.988L228.439 130.809L237.471 131.329L237.883 131.441L246.709 149.75Z" fill="#8908B7"/>
<path d="M247.68 223.511H236.792L236.312 218.584L236.302 218.486L247.404 217.728L247.68 223.511Z" fill="#8908B7"/>
<path d="M250.36 154.72L254.934 181.515L249.275 221.462L249.286 221.703L249.364 223.511H236.435L235.958 218.584L235.917 218.143L234.944 208.053L234.927 207.883L232.862 186.486L236.911 171.021L237.21 169.883V169.879L238.972 143.4L237.608 131.366L237.594 131.254C237.621 131.271 237.645 131.288 237.672 131.305C237.744 131.349 237.815 131.393 237.883 131.441C245.831 136.476 250.567 145.309 250.36 154.72Z" fill="#8908B7"/>
<path d="M196.179 144.78L191.207 139.645C191.207 139.645 180.564 144.436 180.033 147.094C179.503 149.753 160.711 188.793 160.711 188.793L152.535 166.989L141.893 174.084C141.893 174.084 150.432 207.936 158.418 209.525C166.404 211.114 193.17 169.458 193.17 169.458L196.179 144.78Z" fill="#8908B7"/>
<path d="M319.7 132.613C328.836 132.613 336.243 125.218 336.243 116.095C336.243 106.972 328.836 99.5766 319.7 99.5766C310.564 99.5766 303.157 106.972 303.157 116.095C303.157 125.218 310.564 132.613 319.7 132.613Z" fill="#FFB6B6"/>
<path d="M326.559 122.589C326.559 122.589 324.845 117.872 323.872 115.423C322.9 112.975 323.534 109.798 323.534 109.798C323.534 109.798 310.557 106.938 305.475 109.773C300.394 112.608 300.052 98.3491 305.209 94.4684C305.209 94.4684 306.59 96.8652 306.055 97.5543L305.519 98.2434C305.519 98.2434 309.421 90.0016 316.012 89.589C316.012 89.589 319.136 92.0778 317.958 92.8993C316.781 93.7208 326.638 88.2553 328.353 92.9732C328.353 92.9732 334.638 94.0913 333.413 96.2348L333.516 97.7142C333.516 97.7142 339.213 97.1236 338.807 101.154C338.807 101.154 336.89 100.773 335.665 101.59C334.439 102.407 338.58 106.281 338.58 106.281C338.58 106.281 341.069 122.426 332.438 127.075C332.438 127.075 333.838 119.727 330.543 120.929C327.249 122.13 326.559 122.589 326.559 122.589Z" fill="#2F2E41"/>
<path d="M398.061 227.497H10.8793C5.39896 227.497 0.94043 223.045 0.94043 217.572C0.94043 212.1 5.39896 207.648 10.8793 207.648H398.061C403.541 207.648 408 212.1 408 217.572C408 223.045 403.541 227.497 398.061 227.497Z" fill="#F50058" fill-opacity="0.2"/>
<path d="M244.443 177.398L243.69 212.474C243.617 215.87 240.84 218.584 237.439 218.584H172.819C169.499 218.584 166.757 215.992 166.576 212.682L164.655 177.605C164.459 174.028 167.311 171.021 170.899 171.021H238.191C241.697 171.021 244.518 173.898 244.443 177.398Z" fill="#3F3D56"/>
<path d="M384.856 177.398L384.103 212.474C384.031 215.87 381.253 218.584 377.852 218.584H313.232C309.912 218.584 307.17 215.992 306.989 212.682L305.068 177.605C304.873 174.028 307.724 171.021 311.312 171.021H378.605C382.111 171.021 384.931 173.898 384.856 177.398Z" fill="#3F3D56"/>
<path d="M140.125 119.905C148.664 119.905 155.586 112.994 155.586 104.468C155.586 95.9417 148.664 89.0301 140.125 89.0301C131.587 89.0301 124.665 95.9417 124.665 104.468C124.665 112.994 131.587 119.905 140.125 119.905Z" fill="#FFB6B6"/>
<path d="M114.267 144.861L115.968 163.207L127.536 209.751L117.542 213.249L100.657 162.527L98.3252 142.143L114.267 144.861Z" fill="#FFB6B6"/>
<path d="M109.665 177.398L108.913 212.474C108.84 215.87 106.062 218.584 102.661 218.584H38.0415C34.7207 218.584 31.9791 215.992 31.7978 212.682L29.8775 177.605C29.6816 174.028 32.5336 171.021 36.1212 171.021H103.414C106.92 171.021 109.74 173.898 109.665 177.398Z" fill="#3F3D56"/>
<path d="M129.378 218.822C136.122 218.822 141.588 216.407 141.588 213.429C141.588 210.451 136.122 208.036 129.378 208.036C122.635 208.036 117.169 210.451 117.169 213.429C117.169 216.407 122.635 218.822 129.378 218.822Z" fill="#FFB6B6"/>
<path d="M90.2799 147.666L97.2549 110.547C97.2549 110.547 116.649 107.829 117.329 114.284C118.01 120.739 116.843 152.286 116.843 152.286L90.2799 147.666Z" fill="#F50058"/>
<path d="M133.884 106.895C133.884 106.895 143.448 103.487 147.482 101.653C151.517 99.8191 159.531 112.61 159.71 105.855C159.888 99.0994 157.118 96.2666 157.118 96.2666C157.118 96.2666 156.427 81.4886 141.516 83.3362C141.516 83.3362 144.796 75.9427 134.031 74.7994C123.265 73.6561 106.516 99.6149 108.016 103.494C109.516 107.374 111.314 110.581 107.059 114.729C102.803 118.877 94.8349 142.287 100.898 148.586C106.96 154.886 107.358 157.619 103.204 161.538C99.0504 165.457 89.2315 173.979 99.848 175.458C110.464 176.937 98.8767 175.833 106.791 168.881C114.706 161.929 126.256 162.213 121.943 151.06C117.631 139.907 125.123 123.924 124.185 121.499C123.248 119.075 126.286 103.678 126.286 103.678C126.286 103.678 133.356 102.641 133.884 106.895Z" fill="#2F2E41"/>
<path d="M212.824 125.535C222.119 125.535 229.654 118.011 229.654 108.73C229.654 99.4487 222.119 91.9248 212.824 91.9248C203.529 91.9248 195.994 99.4487 195.994 108.73C195.994 118.011 203.529 125.535 212.824 125.535Z" fill="#A0616A"/>
<path d="M214.167 86.1367C213.68 86.4206 213.028 85.9911 212.872 85.4501C212.715 84.909 212.897 84.3346 213.078 83.8011L213.986 81.1156C214.63 79.2109 215.313 77.2397 216.708 75.79C218.813 73.6019 222.159 73.0453 225.171 73.4486C229.038 73.9664 232.854 76.0576 234.653 79.5157C236.451 82.9738 235.685 87.7991 232.436 89.9566C237.067 95.2569 238.681 101.164 238.426 108.193C238.172 115.223 230.5 121.692 225.497 126.644C224.38 125.968 223.364 122.799 223.978 121.647C224.593 120.496 223.712 119.162 224.473 118.102C225.234 117.041 225.871 118.73 225.101 117.675C224.616 117.01 226.511 115.479 225.789 115.081C222.299 113.155 221.138 108.811 218.947 105.485C216.303 101.473 211.778 98.7557 206.989 98.3049C204.351 98.0566 201.565 98.5063 199.403 100.036C197.241 101.565 195.841 104.297 196.342 106.895C195.044 105.579 194.397 103.649 194.641 101.818C194.885 99.9859 196.014 98.2921 197.611 97.3599C196.64 94.1519 197.472 90.4617 199.727 87.9792C201.982 85.4967 211.129 85.9195 214.422 86.5729L214.167 86.1367Z" fill="#2F2E41"/>
<path d="M214.678 98.4023C219.038 98.8723 222.187 102.644 224.845 106.127C226.377 108.134 227.982 110.351 227.944 112.875C227.905 115.426 226.197 117.615 225.38 120.033C224.045 123.985 225.346 128.688 228.523 131.396C225.384 131.991 221.99 129.641 221.448 126.496C220.817 122.836 223.596 119.303 223.267 115.603C222.977 112.344 220.405 109.835 218.218 107.398C216.031 104.961 213.977 101.727 214.983 98.6132L214.678 98.4023Z" fill="#2F2E41"/>
</svg>
